<?xml version="1.0" encoding="utf-8"?>
<!-- Generator: Adobe Illustrator 16.0.0, SVG Export Plug-In . SVG Version: 6.00 Build 0)  -->
<!DOCTYPE svg PUBLIC "-//W3C//DTD SVG 1.1//EN" "http://www.w3.org/Graphics/SVG/1.1/DTD/svg11.dtd">
<svg version="1.1" id="Layer_1" xmlns="http://www.w3.org/2000/svg" xmlns:xlink="http://www.w3.org/1999/xlink" x="0px" y="0px"
	 width="980.951px" height="982.453px" viewBox="0 0 980.951 982.453" enable-background="new 0 0 980.951 982.453"
	 xml:space="preserve">
<path fill="#FFFFFF" d="M975.475,926.976c0,27.613-22.385,50-50,50h-870c-27.614,0-50-22.387-50-50v-870c0-27.614,22.386-50,50-50
	h870c27.615,0,50,22.386,50,50V926.976z"/>
<g>
	<path fill="#F7A800" d="M887.631,310.891c-62.171-93.987-208.607-91.676-327.066,5.174
		C442.105,412.92,396.482,567.646,458.65,661.628c62.173,93.986,208.609,91.676,327.062-5.172
		C904.172,559.601,949.805,404.878,887.631,310.891"/>
	<path fill="#FCFCFD" d="M817.256,461.826c-17.346,26.429-44.05,54.144-80.103,83.119c29.188,10.85,43.786,30.668,43.786,59.459
		c0,17.641-6.183,32.545-18.545,44.744c-12.365,12.203-27.479,18.305-45.33,18.305c-18.035,0-33.359-6.023-45.98-18.043
		c-12.619-12.033-18.933-26.691-18.933-43.984c0-8.303,1.806-16.984,5.411-26.047c3.604-9.068,12.36-21.896,26.275-38.506
		c14.936-17.451,24.293-31.268,28.071-41.438c3.771-10.158,5.664-19.977,5.664-29.475c0-20.505-6.181-37.066-18.545-49.692
		c-12.359-12.615-28.847-18.932-49.456-18.932c-19.571,0-45.076,7.961-76.5,23.896c10.986-45.588,30.949-83.328,59.89-113.232
		c28.938-29.911,61.944-44.863,99.039-44.863c31.424,0,57.826,10.626,79.202,31.902c21.378,21.253,32.068,47.561,32.068,78.913
		C843.273,407.424,834.596,435.385,817.256,461.826"/>
	<path fill="#575756" d="M97.104,391.752c6.879,0,12.777,2.492,17.698,7.469c4.918,4.982,7.374,11.019,7.374,18.105
		c0,6.994-2.43,12.958-7.3,17.891c-4.874,4.934-10.701,7.397-17.483,7.397c-6.973,0-12.919-2.517-17.839-7.542
		c-4.921-5.031-7.377-11.137-7.377-18.322c0-6.896,2.435-12.787,7.305-17.672C84.354,394.189,90.233,391.752,97.104,391.752
		 M77.493,456.122h39.229v156.334H77.493V456.122z"/>
	<polygon fill="#575756" points="133.973,456.122 253.665,456.122 183.43,579.263 249.64,579.263 249.64,612.458 123.196,612.458 
		193.757,489.316 133.973,489.316 	"/>
	<path fill="#575756" d="M281.075,391.752c6.881,0,12.777,2.492,17.698,7.469c4.922,4.982,7.379,11.019,7.379,18.105
		c0,6.994-2.435,12.958-7.308,17.891c-4.871,4.934-10.694,7.397-17.476,7.397c-6.979,0-12.919-2.517-17.849-7.542
		c-4.914-5.031-7.374-11.137-7.374-18.322c0-6.896,2.433-12.787,7.308-17.672C268.325,394.189,274.198,391.752,281.075,391.752
		 M261.463,456.122h39.23v156.334h-39.23V456.122z"/>
	<polygon fill="#575756" points="331.917,398.503 371.142,398.503 371.142,456.122 394.42,456.122 394.42,489.888 371.142,489.888 
		371.142,612.457 331.917,612.457 331.917,489.888 311.797,489.888 311.797,456.122 331.917,456.122 	"/>
	<path fill="#575756" d="M407.006,456.122h33.624v19.686c3.64-7.758,8.479-13.65,14.511-17.672c6.04-4.02,12.646-6.034,19.832-6.034
		c5.077,0,10.392,1.34,15.946,4.021v29.86c-9.144-3.106-13.983-3.266-19.047-2.434c-5.312,0.861-9.791,3.816-15.495,10.352
		c-9.057,10.375-10.576,25.877-10.576,47.717l0.146,7.617v63.223h-38.94L407.006,456.122L407.006,456.122z"/>
	<path fill="#575756" d="M504.555,456.122h39.655v75.293c0,14.654,1.008,24.84,3.026,30.529c2.014,5.705,5.259,10.133,9.721,13.297
		c4.468,3.16,9.969,4.744,16.492,4.744c6.537,0,12.081-1.561,16.645-4.672c4.562-3.111,7.943-7.688,10.149-13.729
		c1.634-4.5,2.448-14.123,2.448-28.879v-76.585h39.229v66.242c0,27.303-2.15,45.975-6.469,56.039
		c-5.271,12.26-13.024,21.674-23.271,28.234c-10.254,6.559-23.281,9.844-39.085,9.844c-17.148,0-31.021-3.834-41.603-11.496
		c-10.584-7.662-18.034-18.344-22.34-32.045c-3.066-9.482-4.601-26.723-4.601-51.73v-65.086H504.555z"/>
</g>
<rect x="11.385" y="13.385" fill="none" width="960" height="960"/>
</svg>
