<?xml version="1.0" encoding="utf-8"?>
<!-- Generator: Adobe Illustrator 19.0.0, SVG Export Plug-In . SVG Version: 6.00 Build 0)  -->
<svg version="1.1" id="Layer_1" xmlns="http://www.w3.org/2000/svg" xmlns:xlink="http://www.w3.org/1999/xlink" x="0px" y="0px"
	 width="90px" height="21px" viewBox="0 0 90 21" enable-background="new 0 0 90 21" xml:space="preserve">
<path id="XMLID_34_" fill="#FFFFFF" d="M47.351,10.111h-0.033c-0.415-0.547-1.394-0.962-2.091-0.962
	c-2.223,0-3.451,2.124-3.451,4.248c0,2.688,1.161,4.714,3.451,4.714c0.929,0,1.61-0.381,2.339-1.095l0.1,0.929h1.743V5.963h-2.058
	V10.111z M47.351,15.687c-0.432,0.332-0.714,0.763-1.593,0.763c-1.228,0-1.925-0.996-1.925-2.821c0-1.825,0.696-2.821,1.925-2.821
	c0.664,0,1.178,0.348,1.593,0.73V15.687z M35.091,16.351l-1.494-0.93c-0.514,0.598-0.962,1.03-1.925,1.03
	c-0.963,0-1.759-0.697-1.793-2.489h5.211v-0.846c0-2.074-1.261-3.983-3.518-3.966c-2.34,0-3.75,1.743-3.75,4.481
	c0,2.738,1.411,4.481,3.651,4.481C33.133,18.11,34.294,17.579,35.091,16.351z M31.54,10.676c0.995,0,1.626,0.697,1.659,1.892H29.88
	C29.913,11.373,30.544,10.676,31.54,10.676z M38.574,10.792h-0.033V9.315h-1.891v8.629h2.057V12.7c0-0.216,0.896-1.394,1.925-1.394
	c0.149,0,0.266,0,0.365,0.017V9.149C39.769,9.183,39.072,9.763,38.574,10.792z M74.211,9.315h-2.356l-2.539,3.335H69.25V5.963
	h-2.058v11.981h2.058v-2.656l1.045-1.211l1.908,3.867h2.19l-2.722-5.41L74.211,9.315z M54.518,18.11
	c1.659,0,2.821-0.531,3.617-1.759l-1.493-0.93c-0.515,0.598-0.962,1.03-1.925,1.03c-0.962,0-1.759-0.697-1.792-2.489h5.21v-0.846
	c0-2.074-1.261-3.983-3.518-3.966c-2.339,0-3.75,1.743-3.75,4.481C50.867,16.367,52.278,18.11,54.518,18.11z M54.584,10.676
	c0.996,0,1.626,0.697,1.659,1.892h-3.319C52.958,11.373,53.589,10.676,54.584,10.676z M2.506,8.917c0-0.929,0.713-1.327,1.709-1.327
	c1.079,0,1.792,0.631,2.14,1.559l2.091-0.647C7.733,6.76,6.14,5.797,4.215,5.797c-2.074,0-3.866,1.211-3.866,3.352
	c0,3.684,6.172,3.22,6.172,5.576c0,1.161-0.88,1.593-2.024,1.593c-1.344,0-2.058-0.746-2.605-1.875L0,15.272
	c0.681,1.743,2.523,2.838,4.48,2.838c2.655,0,4.198-1.228,4.198-3.685C8.678,10.543,2.506,10.974,2.506,8.917z M15.082,15.537
	c-0.348,0.399-1.029,0.913-1.925,0.913c-0.697,0-1.062-0.366-1.062-1.527V9.315h-2.058v5.907c0,1.76,0.829,2.888,2.555,2.888
	c1.012,0,1.892-0.564,2.655-1.095v0.929h1.891V9.315h-2.058V15.537z M23.443,9.149c-0.929,0-1.609,0.382-2.207,0.962V9.315h-1.975
	v11.782h2.058v-3.949h0.033c0.415,0.548,1.394,0.962,2.091,0.962c2.223,0,3.452-2.125,3.452-4.249
	C26.895,11.173,25.733,9.149,23.443,9.149z M22.913,16.451c-0.664,0-1.178-0.349-1.593-0.73v-4.148
	c0.431-0.332,0.714-0.763,1.593-0.763c1.228,0,1.925,0.996,1.925,2.821C24.837,15.454,24.14,16.451,22.913,16.451z M65.568,15.521
	c0-3.152-4.315-2.522-4.315-3.998c0-0.515,0.366-0.846,1.162-0.846c0.647,0,1.195,0.464,1.61,0.913l1.294-1.128
	c-0.747-0.88-1.891-1.311-3.037-1.311c-1.493,0-2.854,0.896-2.854,2.506c0,3.004,4.315,2.472,4.315,3.949
	c0,0.58-0.498,0.979-1.228,0.979c-0.879,0-1.527-0.581-2.008-1.245l-1.378,1.029c0.763,1.129,1.892,1.743,3.269,1.743
	C64.207,18.11,65.568,17.313,65.568,15.521z M82.145,0.142l-6.76,2.32l8.341,3.16l-3.062,8.268l5.683-3.249L90,3.112L82.145,0.142z"
	/>
</svg>
