<?xml version="1.0" standalone="no"?>
<!DOCTYPE svg PUBLIC "-//W3C//DTD SVG 1.1//EN" "http://www.w3.org/Graphics/SVG/1.1/DTD/svg11.dtd" >
<svg xmlns="http://www.w3.org/2000/svg">
<metadata>Generated by IcoMoon</metadata>
<defs>
<font id="sd_icons" horiz-adv-x="1024">
<font-face units-per-em="1024" ascent="960" descent="-64" />
<missing-glyph horiz-adv-x="1024" />
<glyph unicode="&#x20;" horiz-adv-x="512" d="" />
<glyph unicode="&#xe600;" glyph-name="photo" d="M656 421.394c0-79.171-64.181-143.352-143.352-143.352s-143.352 64.181-143.352 143.352c0 79.171 64.181 143.352 143.352 143.352s143.352-64.181 143.352-143.352zM860 768h-140l-112 128h-192l-112-128h-140c-55.228 0-100-44.772-100-100v-504c0-55.228 44.772-100 100-100h696c55.228 0 100 44.772 100 100v504c0 55.228-44.772 100-100 100zM512 197.408c-123.64 0-223.986 100.346-223.986 223.986 0 123.642 100.346 223.988 223.986 223.988s223.986-100.346 223.986-223.988c0-123.64-100.346-223.986-223.986-223.986z" />
<glyph unicode="&#xe601;" glyph-name="video" d="M768 576v192c0 31.318-32.682 64-64 64h-640c-31.318 0-64-32.682-64-64v-576c0-31.318 32.682-64 64-64h640c31.318 0 64 32.682 64 64v192l256-192v575.854l-256-191.854z" />
<glyph unicode="&#xe602;" glyph-name="map-marker" d="M512 896c-173.828 0-314.416-140.59-314.416-314.416 0-235.814 314.416-581.584 314.416-581.584s314.416 345.77 314.416 581.584c0 173.826-140.588 314.416-314.416 314.416zM512 469.292c-61.986 0-112.292 50.306-112.292 112.292s50.306 112.292 112.292 112.292 112.292-50.306 112.292-112.292-50.308-112.292-112.292-112.292z" />
<glyph unicode="&#xe603;" glyph-name="slideshow" d="M64 617.91l-34-13.366c-11.238-4.506-19.029-15.308-19.029-27.93 0-3.953 0.764-7.727 2.153-11.184l50.876-129.374v181.854zM931.498 576h-772.898c-16.9 0-30.6-13.7-30.6-30.6v-578.8c0-16.9 13.7-30.6 30.6-30.6h772.896c16.9 0 30.6 13.7 30.6 30.6v578.8c0 16.899-13.699 30.599-30.598 30.6zM192 64l192 256 128-176 176 272 208-352h-704zM655.272 720l101.186-80h206.28l-101.8 258.926c-4.515 11.259-15.337 19.065-27.982 19.065-3.96 0-7.741-0.766-11.204-2.157l-701.564-275.834h518.348z" />
<glyph unicode="&#xe604;" glyph-name="text" d="M16 280.696v-5.018l1.708 0.672zM831.5 896h-639c-35.476 0-64.5-29.026-64.5-64.5v-703c0-35.474 29.024-64.5 64.5-64.5h639c35.474 0 64.5 29.026 64.5 64.5v703c0 35.474-29.026 64.5-64.5 64.5zM704 256h-384v64h384v-64zM704 384h-384v64h384v-64zM704 512h-384v64h384v-64zM704 640h-384v64h384v-64z" />
<glyph unicode="&#xe605;" glyph-name="file" d="M896 576l-320 320h-320.666c-34.936-0.105-63.229-28.398-63.334-63.324v-769.342c0.105-34.936 28.398-63.229 63.324-63.334h577.342c34.936 0.105 63.229 28.398 63.334 63.324v512.676zM832 576h-256v256z" />
<glyph unicode="&#xe606;" glyph-name="calender" d="M256 512h256v-256h-256v256zM896 832h-64v64h-128v-64h-384v64h-128v-64h-64c-43.316 0-64-20.684-64-64v-704c0-43.316 20.684-64 64-64h768c43.316 0 64 20.684 64 64v704c0 43.316-20.684 64-64 64zM896 64h-768v576h768v-576z" />
<glyph unicode="&#xe607;" glyph-name="composite" d="M64 896h896v-192h-896v192zM128 640v-512c0-35.346 28.654-64 64-64h640c35.346 0 64 28.654 64 64v512h-768zM704 448h-384v128h384v-128z" />
<glyph unicode="&#xe608;" glyph-name="audio" d="M0 640v-320h192l320-256v832l-320-256h-192zM710.152 478.396c0 94.98-54.734 176.544-134.152 216.252v-431.968c79.418 39.174 134.152 120.738 134.152 215.716zM576 949v-110.54c155.078-46.148 268.302-189.958 268.302-360.062s-113.224-313.916-268.302-360.064v-110.54c215.178 48.832 375.624 240.936 375.624 470.604s-160.446 421.77-375.624 470.602z" />
<glyph unicode="&#xe609;" glyph-name="stream" d="M832 768h-640c-35.346 0-64-28.654-64-64v-64c0-35.346 28.654-64 64-64h640c35.346 0 64 28.654 64 64v64c0 35.346-28.654 64-64 64zM256 640h-64v64h64v-64zM832 512h-640c-35.346 0-64-28.652-64-64v-64c0-35.348 28.654-64 64-64h640c35.346 0 64 28.652 64 64v64c0 35.348-28.654 64-64 64zM256 384h-64v64h64v-64zM832 256h-640c-35.346 0-64-28.652-64-64v-64c0-35.348 28.654-64 64-64h640c35.346 0 64 28.652 64 64v64c0 35.348-28.654 64-64 64zM256 128h-64v64h64v-64z" />
<glyph unicode="&#xe60a;" glyph-name="ingest" d="M832 384v-256h-640v256h-128v-384h896v384zM770 512h-190v256h-132v-256h-192l256-256zM384 256h-128v-64h192zM768 192v64h-128l-64-64z" />
<glyph unicode="&#xe60b;" glyph-name="archive" d="M960 768h-320v-320h128l-224-256-224 256h128v320h-320c-35.346 0-64-28.654-64-64v-192h64v-448c0-35.346 28.654-64 64-64h704c35.346 0 64 28.654 64 64v448h64v192c0 35.346-28.654 64-64 64z" />
<glyph unicode="&#xe60c;" glyph-name="time" d="M544 730.666c173.784 0 314.666-140.882 314.666-314.666s-140.882-314.666-314.666-314.666c-173.786 0-314.666 140.882-314.666 314.666s140.88 314.666 314.666 314.666zM544 832c-56.13 0-110.616-11.010-161.948-32.72-49.544-20.956-94.028-50.942-132.208-89.124-38.182-38.18-68.168-82.664-89.124-132.208-21.712-51.33-32.72-105.818-32.72-161.948s11.008-110.618 32.72-161.948c20.956-49.544 50.942-94.026 89.124-132.208 38.18-38.182 82.664-68.168 132.208-89.122 51.332-21.712 105.818-32.722 161.948-32.722 56.128 0 110.618 11.010 161.948 32.72 49.544 20.954 94.026 50.942 132.208 89.122 38.182 38.184 68.168 82.664 89.122 132.208 21.712 51.332 32.722 105.82 32.722 161.95s-11.010 110.618-32.72 161.948c-20.956 49.544-50.942 94.030-89.122 132.208-38.184 38.182-82.664 68.168-132.208 89.124-51.332 21.71-105.822 32.72-161.95 32.72v0zM576 448v192h-64v-256h192v64z" />
<glyph unicode="&#xe60d;" glyph-name="pin" d="M640 512v256l-128-64h-319.834c-35.438 0-64.166-28.728-64.166-64.166v-319.666c0-35.44 28.728-64.168 64.166-64.168h319.834l128-64v256h320v64h-320z" />
<glyph unicode="&#xe60e;" glyph-name="expand" d="M0 831.666v-767.666c0-70.91 57.728-128 128-128h768c70.272 0 128 56.118 128 127.028v192.972h-128v-192h-640l-0.466 768.234 640.466-0.234v-192h128v192c0 70.272-57.728 128-128 128h-768c-70.272 0-128-57.422-128-128.334zM1024 448l-256 192v-128h-320v-128.334l320 0.334v-128z" />
<glyph unicode="&#xe60f;" glyph-name="ascending" d="M0 64.662h1024v-128.662h-1024v128.662zM128 320.662h768v-128.662h-768v128.662zM256 576.662h512v-128.662h-512v128.662zM384 832h256v-128.662h-256v128.662z" />
<glyph unicode="&#xe610;" glyph-name="th" d="M0 960h256v-256h-256v256zM0 576h256v-256h-256v256zM0 192h256v-256h-256v256zM384 960h256v-256h-256v256zM384 576h256v-256h-256v256zM384 192h256v-256h-256v256zM768 960h256v-256h-256v256zM768 576h256v-256h-256v256zM768 192h256v-256h-256v256z" />
<glyph unicode="&#xe611;" glyph-name="th-list" d="M0 960h256v-256h-256v256zM0 576h256v-256h-256v256zM0 192h256v-256h-256v256zM384 960h640v-256h-640v256zM384 576h640v-256h-640v256zM384 192h640v-256h-640v256z" />
<glyph unicode="&#xe612;" glyph-name="pencil" d="M128.472 176.892v-176.886h176.886l521.932 521.932-176.886 176.886-521.932-521.932zM963.61 658.256c18.396 18.396 18.396 48.348 0 66.744l-110.14 110.14c-18.396 18.396-48.348 18.396-66.744 0l-86.32-86.32 176.886-176.886 86.318 86.322z" />
<glyph unicode="&#xe613;" glyph-name="lock" d="M832 512h-64v160c0 112-109 224-224 224h-65c-127 0-223-112-223-224v-160h-64c-35.346 0-64-28.654-64-64v-448c0-35.346 28.654-64 64-64h640c35.346 0 64 28.654 64 64v448c0 35.346-28.654 64-64 64zM512 128c-53.020 0-96 42.98-96 96s42.98 96 96 96 96-42.98 96-96-42.98-96-96-96zM640 512h-256v160c0 48 64 96 112 96h32c48 0 112-48 112-96v-160z" />
<glyph unicode="&#xe614;" glyph-name="retweet" d="M256 256v256h128l-192 192-192-192h128v-384h576l-128 128zM768 576v-256h-128l192-192 192 192h-128v384h-576l128-128z" />
<glyph unicode="&#xe615;" glyph-name="unspike" d="M117.034 849.558l-68.060-68.058 146.5-146.5v-571c0-34.978 28.356-63.334 63.334-63.334h449.334c33.36 0 60.678 25.8 63.134 58.532l109.494-109.494 66.526 69.592-830.262 830.262zM771.476 640h-314.408l314.408-314.408zM835.476 704v128h-128l-64 64h-320l-61.204-61.204 130.796-130.796z" />
<glyph unicode="&#xe616;" glyph-name="fullscreen" d="M448 320v64h-64l-192-192v192h-128v-384h384v128h-192zM576 576v-64h64l192 192v-192h128v384h-384v-128h192z" />
<glyph unicode="&#xe617;" glyph-name="fetch-as" d="M850.306 314.438l84.906 39.766c17.764 8.32 36.138-10.268 27.616-27.934l-40.734-84.446 88.158-31.918c18.444-6.678 18.294-32.814-0.224-39.28l-88.516-30.908 39.766-84.906c8.32-17.764-10.268-36.138-27.934-27.616l-84.446 40.734-31.918-88.158c-6.678-18.444-32.814-18.294-39.28 0.224l-30.908 88.516-84.906-39.766c-17.764-8.32-36.138 10.268-27.616 27.934l40.734 84.446-88.158 31.918c-18.444 6.678-18.294 32.814 0.224 39.28l88.516 30.908-39.766 84.906c-8.32 17.764 10.268 36.138 27.934 27.616l84.446-40.734 31.918 88.158c6.678 18.444 32.814 18.294 39.28-0.224l30.908-88.516zM528 192c0 150.222 121.778 272 272 272 10.828 0 21.502-0.652 32-1.884v113.884h64v192c0 35.346-28.654 64-64 64h-320v-320h128l-192-256-192 256h128v320h-320c-35.346 0-64-28.654-64-64v-192h64v-448c0-35.346 28.654-64 64-64h431.958c-20.386 38.15-31.958 81.722-31.958 128z" />
<glyph unicode="&#xe618;" glyph-name="search" d="M702.358 362.324c41.124 61.124 65.13 134.722 65.13 213.932 0 211.938-171.808 383.744-383.744 383.744s-383.744-171.806-383.744-383.744c0-211.934 171.806-383.744 383.744-383.744 77.214 0 149.086 22.824 209.282 62.066l278.776-278.776 108.54 108.54-277.984 277.982zM383.744 319.696c-141.694 0-256.56 114.868-256.56 256.56 0 141.694 114.866 256.56 256.56 256.56 141.692 0 256.56-114.866 256.56-256.56 0-141.692-114.868-256.56-256.56-256.56z" />
<glyph unicode="&#xe619;" glyph-name="star" d="M509.14 816.158l98.84-304.196h319.854l-258.768-188.008 98.84-304.196-258.766 188.002-258.766-188.002 98.84 304.196-258.768 188.008h319.854z" />
<glyph unicode="&#xe61a;" glyph-name="star-empty" d="M933.492 511.954h-319.852l-98.84 304.196-98.84-304.198h-319.854l258.766-188.006-98.84-304.198 258.768 188.006 258.766-188.004-98.84 304.198 258.766 188.006zM610.752 248.962l-95.952 69.714-95.954-69.714 36.652 112.798-95.954 69.712h118.604l36.652 112.8 36.65-112.8h118.604l-95.952-69.712 36.65-112.798z" />
<glyph unicode="&#xe61b;" glyph-name="multi-star" d="M605.306 816.158l98.84-304.196h319.854l-258.768-188.008 98.84-304.196-258.766 188.002-258.766-188.002 98.84 304.196-258.768 188.008h319.854zM480 692.518l-40.174 123.64-79.674-241.266h80.346zM266.236 96.17l74.010 227.784-258.766 188.008h-80.348l258.768-188.008-98.84-304.196z" />
<glyph unicode="&#xe61c;" glyph-name="th-large" d="M0 960h448v-448h-448v448zM576 960h448v-448h-448v448zM0 384h448v-448h-448v448zM576 384h448v-448h-448v448z" />
<glyph unicode="&#xe61d;" glyph-name="ok" d="M386 301l-186.618 186.618-87.382-87.384 272.234-272.234 583.36 583.36-85.618 85.618-495.976-495.978z" />
<glyph unicode="&#xe61e;" glyph-name="zoom-in" d="M512 704h-128v-128h-128v-128h128v-128h128v128h128v128h-128zM766.626 298.308c41.124 61.124 65.13 134.722 65.13 213.932 0 211.938-171.806 383.744-383.744 383.744s-383.744-171.806-383.744-383.744c0-211.934 171.806-383.744 383.744-383.744 77.214 0 149.086 22.824 209.282 62.066l215.562-215.562 108.54 108.54-214.77 214.768zM448.012 255.682c-141.694 0-256.56 114.868-256.56 256.56 0 141.694 114.866 256.56 256.56 256.56 141.692 0 256.56-114.866 256.56-256.56s-114.868-256.56-256.56-256.56z" />
<glyph unicode="&#xe61f;" glyph-name="zoom-out" d="M256 576h384v-128h-384v128zM766.626 298.308c41.124 61.124 65.13 134.722 65.13 213.932 0 211.938-171.806 383.744-383.744 383.744s-383.744-171.806-383.744-383.744c0-211.934 171.806-383.744 383.744-383.744 77.214 0 149.086 22.824 209.282 62.066l215.562-215.562 108.54 108.54-214.77 214.768zM448.012 255.682c-141.694 0-256.56 114.868-256.56 256.56 0 141.694 114.866 256.56 256.56 256.56 141.692 0 256.56-114.866 256.56-256.56s-114.868-256.56-256.56-256.56z" />
<glyph unicode="&#xe620;" glyph-name="signal" d="M768 832h128v-768h-128v768zM576 576h128v-512h-128v512zM384 384h128v-320h-128v320zM192 256h128v-192h-128v192z" />
<glyph unicode="&#xe621;" glyph-name="filter-large" d="M0 896v-134.082l384-377.918v-448l193.714 192.002v255.998l382.286 384v128z" />
<glyph unicode="&#xe622;" glyph-name="trash" d="M768 832l-64 64h-320l-64-64h-128v-128h704v128zM256 64c0-34.978 28.356-63.334 63.334-63.334h449.334c34.976 0 63.332 28.356 63.332 63.334v576h-576v-576z" />
<glyph unicode="&#xe623;" glyph-name="user" d="M128 64h768v128l-256 128v128c0 0 64 15 64 192 0 126-80 192-144 192h-96c-62 0-144-66-144-192 0-176 64-192 64-192v-128l-256-128v-128z" />
<glyph unicode="&#xe624;" glyph-name="download" d="M960 576h-256v384h-320v-384h-256l416-384 416 384zM128 64v-128h832v128h-832z" />
<glyph unicode="&#xe625;" glyph-name="upload" d="M544 704l-416-384h256v-384h320v384h256l-416 384zM960 832v128h-832v-128h832z" />
<glyph unicode="&#xe626;" glyph-name="repeat" d="M511.408 119.25c-182.558 0-330.48 148.006-330.48 330.478s147.922 330.48 330.48 330.48c146.956 0 202.996-64.658 202.996-64.658l-122.404-139.55h304v336l-102.712-110.676c0 0-98.958 87.77-281.88 87.77-242.24 0-439.376-197.050-439.376-439.3 0-242.226 197.136-439.28 439.376-439.28 242.238 0.002 439.592 195.26 439.592 437.486h-103c0-182.538-154.044-328.75-336.592-328.75z" />
<glyph unicode="&#xe627;" glyph-name="refresh" d="M180.95 448c-0.002 0.576-0.022 1.15-0.022 1.728 0 182.472 147.922 330.48 330.48 330.48 146.956 0 202.996-64.658 202.996-64.658l-122.404-139.55h304v336l-102.712-110.676c0 0-98.958 87.77-281.88 87.77-242.24 0-439.376-197.050-439.376-439.3 0-0.6 0.020-1.196 0.022-1.796h108.896zM843.050 448c0.002-0.576 0.022-1.15 0.022-1.728 0-182.472-147.922-330.48-330.48-330.48-146.956 0-202.996 64.658-202.996 64.658l122.404 139.55h-304v-336l102.712 110.676c0 0 98.958-87.77 281.88-87.77 242.24 0 439.376 197.050 439.376 439.3 0 0.6-0.020 1.196-0.022 1.796h-108.896z" />
<glyph unicode="&#xe628;" glyph-name="list-alt" d="M836.694 896h-649.388c-32.754 0-59.306-26.552-59.306-59.306v-777.388c0-32.754 26.552-59.306 59.306-59.306h649.388c32.754 0 59.306 26.552 59.306 59.306v777.388c0 32.754-26.552 59.306-59.306 59.306zM320 256h-64v64h64v-64zM320 384h-64v64h64v-64zM320 512h-64v64h64v-64zM320 640h-64v64h64v-64zM768 256h-384v64h384v-64zM768 384h-384v64h384v-64zM768 512h-384v64h384v-64zM768 640h-384v64h384v-64z" />
<glyph unicode="&#xe629;" glyph-name="plus-large" d="M896 512h-320v320h-128v-320h-320v-128h320v-320h128v320h320z" />
<glyph unicode="&#xe62a;" glyph-name="picture" d="M960 128.284v639.432c0 35.503-28.781 64.284-64.284 64.284h-767.432c-35.503 0-64.284-28.781-64.284-64.284v-639.432c0-35.503 28.781-64.284 64.284-64.284h767.432c35.503 0 64.284 28.781 64.284 64.284zM336 432l128-144.556 176 272.556 256-368h-752z" />
<glyph unicode="&#xe62b;" glyph-name="question-sign" d="M512 895.998c-247.424 0-448-200.578-448-448s200.576-448 448-448 448 200.578 448 448-200.576 448-448 448zM576 128h-128v128h128v-128zM512 320c-54.666 0-64 0-64 0v112c0 0 178.666-35.334 178.666 101.334 0 54.666-27.334 109.334-109.334 109.334-109.332-0.002-109.332-109.334-109.332-109.334h-109.334c0 0 0 218.666 218.666 218.666 109.334 0 218.668-54.666 218.668-218.666 0-136.668-87.334-213.334-224-213.334z" />
<glyph unicode="&#xe62c;" glyph-name="info-sign" d="M512 895.998c-247.424 0-448-200.578-448-448s200.576-448 448-448 448 200.578 448 448-200.576 448-448 448zM448 704h128v-128h-128v128zM640 192h-256v64h64v192h-64v64h192v-256h64v-64z" />
<glyph unicode="&#xe62d;" glyph-name="plus-sign" d="M512 895.998c-247.424 0-448-200.578-448-448s200.576-448 448-448 448 200.578 448 448-200.576 448-448 448zM768 383.998h-192v-191.998h-128v191.998h-192v128h192v192.002h128v-192.002h192v-128z" />
<glyph unicode="&#xe62e;" glyph-name="minus-sign" d="M512 895.998c-247.424 0-448-200.578-448-448s200.576-448 448-448 448 200.578 448 448-200.576 448-448 448zM768 383.998h-512v128h512v-128z" />
<glyph unicode="&#xe62f;" glyph-name="remove-sign" d="M828.784 764.782c-174.954 174.954-458.614 174.954-633.568 0s-174.954-458.612 0-633.568 458.614-174.954 633.568 0 174.954 458.614 0 633.568zM647.764 221.724l-135.764 135.764-135.764-135.764-90.51 90.51 135.764 135.764-135.764 135.764 90.51 90.51 135.764-135.764 135.766 135.766 90.51-90.51-135.766-135.766 135.764-135.764-90.51-90.51z" />
<glyph unicode="&#xe630;" glyph-name="share-alt" d="M106.666 128c106.666 149.334 256 217.6 469.334 217.6v-174.934l298.666 298.666-298.666 298.668v-170.666c-298.666-42.668-426.666-256-469.334-469.334z" />
<glyph unicode="&#xe631;" glyph-name="exclamation-sign" d="M512 895.998c-247.424 0-448-200.578-448-448s200.576-448 448-448 448 200.578 448 448-200.576 448-448 448zM576 192h-128v128h128v-128zM576 384h-128v320h128v-320z" />
<glyph unicode="&#xe632;" glyph-name="eye-open" d="M511.604 772.956c-217.428 0-403.11-135.24-478.34-326.14 75.23-190.902 260.912-326.14 478.34-326.14s403.11 135.24 478.34 326.14c-75.23 190.902-260.914 326.14-478.34 326.14zM511.604 229.388c-120.020 0-217.428 97.408-217.428 217.428s97.408 217.428 217.428 217.428 217.428-97.408 217.428-217.428-97.408-217.428-217.428-217.428zM511.604 577.272c-72.186 0-130.456-58.27-130.456-130.456s58.27-130.456 130.456-130.456 130.456 58.27 130.456 130.456-58.27 130.456-130.456 130.456z" />
<glyph unicode="&#xe633;" glyph-name="copy" d="M256 769.748c0.104 34.339 27.913 62.148 62.242 62.252h321.758l-128.668 128h-321.080c-34.339-0.104-62.148-27.913-62.252-62.242v-771.506c0.104-34.339 27.913-62.148 62.242-62.252h65.758v705.748zM960 512l-256 256h-321.748c-34.339-0.104-62.148-27.913-62.252-62.242v-707.506c0.104-34.339 27.913-62.148 62.242-62.252h515.506c34.339 0.104 62.148 27.913 62.252 62.242v513.758zM704 512v192l192-192h-192z" />
<glyph unicode="&#xe634;" glyph-name="comment" d="M64 768v-704l192 192h640c33 0 64 31 64 64v448c0 31-31 64-64 64h-768c-32 0-64-35-64-64z" />
<glyph unicode="&#xe635;" glyph-name="warning-sign" d="M473.494 828.614l-435.578-762.26c-16.894-29.566 4.454-66.354 38.506-66.354h871.156c34.052 0 55.402 36.788 38.506 66.354l-435.578 762.26c-17.026 29.794-59.986 29.794-77.012 0zM576 128h-128v112h128v-112zM448 320v256h128v-256h-128z" />
<glyph unicode="&#xe636;" glyph-name="adjust" d="M247.346 807.484c-242.096-180.558-242.094-538.412 0-718.97 156.556-116.76 372.754-116.76 529.308 0.002 242.096 180.56 242.094 538.412-0.002 718.97-156.554 116.76-372.752 116.76-529.306-0.002zM285.334 668.288c47.196 48.532 109.686 95.788 226.666 95.788v-632.152c-90.64 0-179.468 47.256-226.666 95.786-118.712 122.070-118.714 318.508 0 440.578z" />
<glyph unicode="&#xe637;" glyph-name="folder-close" d="M576 704l-128 128h-320c-35.346 0-64-28.654-64-64v-640c0-35.346 28.654-64 64-64h768c35.346 0 64 28.654 64 64v512c0 35.346-28.654 64-64 64h-320z" />
<glyph unicode="&#xe638;" glyph-name="folder-open" d="M127.69 64h665.39c0 0 0 0 0 0 24.196 0 44.991 14.559 54.104 35.394l145.748 340.122c2.658 6.040 4.205 13.081 4.205 20.484 0 28.718-23.279 51.998-51.996 52h-642.8c0 0 0 0 0 0-28.811 0-53.574-17.337-64.423-42.148l-148.826-347.31c-2.146-4.878-3.395-10.564-3.395-16.542 0-23.194 18.801-41.997 41.995-42zM512 704l-128 128h-256c-35.346 0-64-28.654-64-64v-512l109.65 274.128c11.056 27.111 37.212 45.87 67.75 45.872h654.6v64c0 35.346-28.654 64-64 64h-320z" />
<glyph unicode="&#xe639;" glyph-name="download-alt" d="M608 320l160 192-128-0.008v320.008h-192v-320.008l-128 0.008 160-192h-288v-256h704v256h-288zM832 192h-128v64h128v-64z" />
<glyph unicode="&#xe63a;" glyph-name="tasks" d="M128 768v-192h768v192h-768zM832 640h-640v64h640v-64zM192 704h512v-64h-512v64zM128 512v-192h768v192h-768zM832 384h-640v64h640v-64zM192 448h320v-64h-320v64zM128 256v-192h768v192h-768zM832 128h-640v64h640v-64zM192 192h448v-64h-448v64z" />
<glyph unicode="&#xe63b;" glyph-name="globe" d="M512 896c-247.424 0-448-200.578-448-448s200.576-448 448-448 448 200.578 448 448-200.576 448-448 448zM458.334 816.666h144.666v-46.666h-144.666v46.666zM568 742v-37.334h-95.666v37.334h95.666zM605.334 93.334c-46.078 0-102.378 87.072-119.002 153.758-53.52 11.090-156.8 62.394-189.202 143.484-20.466 51.188-48.726 137.256-50.978 194.996-2.252 57.582 59.978 189.006 143.23 186.758 54.008-1.48 78.754-39.732 87.756-111.74 2.040-16.38 149.986 45.856 189.014 46.486 48.802 0.77-68.982-118.492-68.982-118.492s-39.026-123.038-111.028-123.038c-110.262 0-157.194-40.562-142.142-73.546 9.76-21.388 89.396-66.144 138-101.090 2.198 18.826 11.692 31.090 31.14 31.090 24.192 0 203.986 0 275.99 0 72.006 0-111.77-228.666-183.796-228.666z" />
<glyph unicode="&#xe63c;" glyph-name="link" d="M128 384c0 92.666 63.6 192 192 192h128v128h-128c-254.16 0-320-196.872-320-320s61.694-320 320-320h128v128h-128c-131.164 0-192 91.334-192 192zM704 192h-128v-128h128c258.306 0 320 196.872 320 320s-65.84 320-320 320h-128v-128h128c128.4 0 192-99.334 192-192 0-100.666-60.836-192-192-192zM320 448h384v-128h-384v128z" />
<glyph unicode="&#xe63d;" glyph-name="expand-thin" d="M191.412 896h385.174c70.716 0 127.414-57.336 127.414-127.414v-128.586h-128v128h-384v-640h384v128h128v-128c0-70.078-56.698-128-127.412-128h-385.176c-70.714 0-127.412 57.336-127.412 127.414v640.586c0 70.078 56.698 128 127.412 128zM1024 448l-256 192v-128h-384v-128.334l384 0.334v-128z" />
<glyph unicode="&#xe63e;" glyph-name="assign" d="M416 384c48 0 96 64 96 128v128c0 64-64 128-128 128h-64c-64 0-128-64-128-128v-128c0-64 48-128 96-128 0 0-224-128-224-192s0-128 0-128h576c0 0 0 64 0 128s-224 192-224 192zM1024 448l-256 192v-128h-192v-128.334l192 0.334v-128z" />
<glyph unicode="&#xe63f;" glyph-name="dots" d="M320 448c0-70.692-57.308-128-128-128v0c-70.692 0-128 57.308-128 128v0c0 70.692 57.308 128 128 128v0c70.692 0 128-57.308 128-128v0zM640 448c0 70.692-57.308 128-128 128v0c-70.692 0-128-57.308-128-128v0c0-70.692 57.308-128 128-128v0c70.692 0 128 57.308 128 128v0zM960 448c0 70.692-57.308 128-128 128v0c-70.692 0-128-57.308-128-128v0c0-70.692 57.308-128 128-128v0c70.692 0 128 57.308 128 128v0z" />
<glyph unicode="&#xe640;" glyph-name="backward-thin" d="M496.354 83.816l-354.858 345.204 358.162 338.98 70.562-74.562-280.518-265.484 278.21-270.562zM821.366 83.816l-354.852 345.204 358.162 338.98 70.562-74.562-280.52-265.484 278.216-270.562z" />
<glyph unicode="&#xe641;" glyph-name="forward-thin" d="M543.020 768l354.858-345.204-358.162-338.98-70.562 74.564 280.518 265.484-278.212 270.56zM218.006 768l354.852-345.204-358.16-338.98-70.564 74.564 280.52 265.484-278.214 270.56z" />
<glyph unicode="&#xe642;" glyph-name="chevron-left-thin" d="M609.754 768l-354.852-345.204 358.16-338.98 70.564 74.564-280.52 265.484 278.214 270.56z" />
<glyph unicode="&#xe643;" glyph-name="chevron-right-thin" d="M415.714 768l354.852-345.204-358.162-338.98-70.562 74.564 280.52 265.484-278.216 270.56z" />
<glyph unicode="&#xe644;" glyph-name="switches" d="M512 384h64v-384h-64v384zM576 576v256h-64v-256h-64v-128h192v128zM832 512h64v-512h-64v512zM896 704v128h-64v-128h-63.998v-128h191.998v128zM192 192h64v-192h-64v192zM256 384v448h-64v-448h-64v-128h192v128z" />
<glyph unicode="&#xe645;" glyph-name="plus-small" d="M768 512h-192v192h-128v-192h-192v-128h192v-192h128v192h192z" />
<glyph unicode="&#xe646;" glyph-name="minus-small" d="M256 512h512v-128h-512v128z" />
<glyph unicode="&#xe647;" glyph-name="close-small" d="M835.672 203.3l-244.004 243.878 241.518 241.594-77.296 77.098-243.812-243.824-243.75 243.694-77.17-77.36 242.092-242.032-243.75-243.67 79.72-79.588 241.966 242.086 243.238-243.176z" />
<glyph unicode="&#xe648;" glyph-name="post" d="M896 832h-768c-33 0-64-33-64-64v-704l192 192h640c32 0 64 30 64 64v448c0 31-30 64-64 64zM640 384h-384v64h384v-64zM768 512h-512v64h512v-64zM768 640h-512v64h512v-64z" />
<glyph unicode="&#xe649;" glyph-name="external" d="M832 128l-640.588-0.586 0.588 640.586h192v128h-192.588c-70.714 0-127.412-57.336-127.412-127.414v-640.586c0-70.078 56.698-128 127.412-128h641.174c70.078 0 127.414 57.336 127.414 127.414v192.586h-127.412l-0.588-192zM512 896v-128h224l-424-424 96-96 424 424v-224l128-0.126v448.126z" />
<glyph unicode="&#xe64a;" glyph-name="chevron-up-thin" d="M857.518 349.148l-345.204 354.852-338.98-358.16 74.562-70.562 265.484 280.518 270.562-278.214z" />
<glyph unicode="&#xe64b;" glyph-name="chevron-down-thin" d="M167.282 630.128l345.204-354.85 338.98 358.16-74.562 70.562-265.484-280.52-270.562 278.216z" />
<glyph unicode="&#xe64c;" glyph-name="pick" d="M416 386c48 0 96 64 96 128v128c0 64-64 128-128 128h-64c-64 0-128-64-128-128v-128c0-64 48-128 96-128 0 0-224-128-224-192s0-128 0-128h576c0 0 0 64 0 128s-224 192-224 192zM576 448l256-192v128h192v128.334l-192-0.334v128z" />
<glyph unicode="&#xe64d;" glyph-name="revert" d="M448.666 597.334v170.666l-298.666-298.666 298.666-298.666v174.932c213.334 0 362.668-68.266 469.334-217.6-42.666 213.334-170.666 426.666-469.334 469.334z" />
<glyph unicode="&#xe64e;" glyph-name="package-plus" d="M0 960h704v-192h-704v192zM640 704h-576v-448h384v128l192-0.008v320.008zM448 512h-192v128h192v-128zM1024 320h-192v192h-128v-192h-192v-128h192v-192h128v192h192z" />
<glyph unicode="&#xe64f;" glyph-name="list-plus" d="M0 832h832v-128h-832v128zM0 640h832v-128h-832v128zM0 448h640v-128h-640v128zM0 256h448v-128h-448v128zM512 256h512v-128h-512v128zM704 448h128v-512h-128v512z" />
<glyph unicode="&#xe650;" glyph-name="envelope" d="M864 768h-704c-49.208 0-96-46.792-96-96v-512c0-49.208 40.4-96 89.61-96h715.76c49.208 0 90.63 46.792 90.63 96v512c0 49.208-46.792 96-96 96zM869.368 584.82l-357.88-223.674-357.878 223.674v89.47l357.88-223.674 357.88 223.674v-89.47z" />
<glyph unicode="&#xe651;" glyph-name="heart" d="M512 64c0 0-386.702 368-386.702 497.032 0 143.428 97.048 206.968 194.702 206.968 97.652 0 192-128 192-128s72.606 128 192 128 192-77.092 192-208c0-146.048-384-496-384-496z" />
<glyph unicode="&#xe652;" glyph-name="home" d="M256 0v384h-128l416 448 416-448h-128v-384h-192v256h-192v-256z" />
<glyph unicode="&#xe653;" glyph-name="print" d="M256 832h512v-192h-512v192zM767.8 576h-511.76c-70.715 0-128.040-57.325-128.040-128.040v-255.96h128v-192h512v192c0-0.488 127.118 0 127.118 0 0.488 0 0.882 255.8 0.882 255.8 0 70.803-57.397 128.2-128.2 128.2zM704 64h-384v191.946c97.954-0.088 285.514-0.282 384-0.522v-191.424zM760 384c-30.928 0-56 25.072-56 56s25.072 56 56 56c30.928 0 56-25.072 56-56s-25.072-56-56-56z" />
<glyph unicode="&#xe654;" glyph-name="font" d="M752 64h144l-332 768h-104l-332-768h144l48.762 128h382.476zM369.524 320l142.476 374 142.476-374h-284.952z" />
<glyph unicode="&#xe655;" glyph-name="bold" d="M688 464c52.938 37.028 80 87.772 80 144 0 123.702-97.334 224-233.142 224h-342.858v-768h386.2c114.926 0 220.588 93.264 221.8 207.908 1 94.092-44 155.092-112 192.092zM384 704h112c60.666 0 96-50.468 96-96s-38-96-96-96h-112v192zM528 192h-144v192h144c56 0 96-50.468 96-96s-38-96-96-96z" />
<glyph unicode="&#xe656;" glyph-name="italic" d="M192 64h448v128h-144l192 512h144v128h-448v-128h144l-192-512h-144v-128z" />
<glyph unicode="&#xe657;" glyph-name="underline" d="M512 192c143.5 0 256 128.5 256 272v368h-128v-352c0-80-45.44-160-128-160s-128 64.666-128 160v352h-128v-368c0-144 112-272 256-272zM192 128h640v-128h-640v128z" />
<glyph unicode="&#xe658;" glyph-name="striketrough" d="M832 704v128h-640v-128h256v-256h-320v-64h768v64h-320v256h256zM448 320h128v-256h-128v256z" />
<glyph unicode="&#xe659;" glyph-name="align-left" d="M128 384h768v-128h-768v128zM128 128h512v-128h-512v128zM128 896h768v-128h-768v128zM128 640h512v-128h-512v128z" />
<glyph unicode="&#xe65a;" glyph-name="align-center" d="M128 384h768v-128h-768v128zM256 128h512v-128h-512v128zM128 896h768v-128h-768v128zM256 640h512v-128h-512v128z" />
<glyph unicode="&#xe65b;" glyph-name="align-right" d="M128 384h768v-128h-768v128zM384 128h512v-128h-512v128zM128 896h768v-128h-768v128zM384 640h512v-128h-512v128z" />
<glyph unicode="&#xe65c;" glyph-name="align-justify" d="M128 384h768v-128h-768v128zM128 128h768v-128h-768v128zM128 896h768v-128h-768v128zM128 640h768v-128h-768v128z" />
<glyph unicode="&#xe65d;" glyph-name="unordered-list" d="M384 832h576v-128h-576v128zM384 192h576v-128h-576v128zM384 512h576v-128h-576v128zM128 832h128v-128h-128v128zM128 192h128v-128h-128v128zM128 512h128v-128h-128v128z" />
<glyph unicode="&#xe65e;" glyph-name="indent-left" d="M448 256h512v128h-512v-128zM288 448l-224 224v-448zM64 0h896v128h-896v-128zM64 896v-128h896v128h-896zM448 512h512v128h-512v-128z" />
<glyph unicode="&#xe65f;" glyph-name="indent-right" d="M576 384h-512v-128h512v128zM960 224v448l-224-224zM960 128h-896v-128h896v128zM64 896v-128h896v128h-896zM576 640h-512v-128h512v128z" />
<glyph unicode="&#xe660;" glyph-name="ban-circle" d="M512 832c-212.078 0-384-171.922-384-384s171.922-384 384-384 384 171.922 384 384-171.922 384-384 384zM512 720c56.772 0 109.474-17.402 153.084-47.152l-377.932-377.932c-29.75 43.61-47.152 96.312-47.152 153.084 0 150.222 121.778 272 272 272zM512 176c-58.772 0-113.19 18.642-157.666 50.334l379.332 379.332c31.692-44.476 50.334-98.894 50.334-157.666 0-150.222-121.778-272-272-272z" />
<glyph unicode="&#xe661;" glyph-name="bell" d="M512-27.918c50.81 0 91.92 41.11 91.92 91.918h-183.84c0-50.81 41.11-91.918 91.92-91.918zM768 320v187c0 150.12-42.138 265.042-182.558 298.3v17.256c0 40.65-32.794 73.444-73.442 73.444s-73.442-32.794-73.442-73.442v-17.256c-140.42-33.26-182.558-148.182-182.558-298.302v-187l-128-112v-80h768v80l-128 112z" />
<glyph unicode="&#xe662;" glyph-name="random" d="M768 832v-128h-162.076l-335.924-384h-208v-128h256l306 384h144v-128l192 192zM334 512l80 80-96 112h-256v-128h208zM768 320h-144l-60.51 67.168-63.182-83.622 107.692-111.546h160v-128l192 192-192 192z" />
<glyph unicode="&#xe663;" glyph-name="settings" d="M580.488 903.272c-46.076 4.188-87.964 4.188-134.040 0l-8.378-121.474c-37.698-8.378-75.398-20.944-108.908-41.888l-92.152 75.398c-33.51-25.132-67.020-58.642-92.152-92.152l75.398-92.152c-20.944-33.51-33.51-71.21-41.888-108.908l-121.474-8.378c-8.378-46.076-8.378-92.152 0-134.040l121.474-8.378c8.378-37.698 25.132-75.398 41.888-104.72l-79.586-92.152c25.132-37.698 58.642-67.020 96.342-96.342l92.152 75.398c33.51-20.944 67.020-33.51 104.72-41.888l8.378-121.474c46.076-8.378 92.152-8.378 134.040 0l8.378 121.474c37.698 8.378 75.398 25.132 104.72 41.888l92.152-79.586c37.698 25.132 67.020 58.642 96.342 96.342l-71.208 92.152c20.944 33.51 33.51 67.020 41.888 104.72l121.474 8.378c8.378 46.076 8.378 92.152 0 134.040l-121.474 12.566c-8.378 37.698-25.132 75.398-41.888 104.72l79.586 92.152c-25.132 37.698-58.642 67.020-96.342 96.342l-92.152-75.398c-33.51 20.944-67.020 33.51-104.72 41.888l-12.57 121.472zM513.468 698.022c138.23 0 251.326-113.096 251.326-251.326s-113.096-251.326-251.326-251.326-251.326 113.096-251.326 251.326 113.096 251.326 251.326 251.326v0z" />
<glyph unicode="&#xe664;" glyph-name="package-create" d="M64 832h704v-192h-704v192zM949.158 240.978l-88.158 31.918 40.734 84.446c8.522 17.666-9.854 36.254-27.616 27.934l-84.906-39.766-30.908 88.516c-6.466 18.518-32.602 18.668-39.28 0.224l-31.918-88.158-84.446 40.734c-17.668 8.522-36.254-9.854-27.934-27.616l39.766-84.906-88.516-30.908c-18.518-6.466-18.668-32.602-0.224-39.28l88.158-31.918-40.734-84.446c-8.522-17.668 9.854-36.254 27.616-27.934l84.906 39.766 30.908-88.516c6.466-18.518 32.602-18.668 39.28-0.224l31.918 88.156 84.446-40.734c17.668-8.522 36.254 9.854 27.934 27.616l-39.766 84.906 88.516 30.908c18.518 6.468 18.666 32.604 0.224 39.282zM704 505.116v70.884h-576v-448h340.734c-1.798 14.416-2.734 29.098-2.734 44 0 154.504 99.548 285.746 238 333.116zM320 512h192v-128h-192v128z" />
<glyph unicode="&#xe665;" glyph-name="list-menu" d="M192 768h640v-128h-640v128zM192 512h640v-128h-640v128zM192 256h640v-128h-640v128z" />
<glyph unicode="&#xe666;" glyph-name="new-doc" d="M832 256v192h-128v-192h-192v-128h192v-192h128v192h192v128h-192zM640 704l-256 256h-315.666c-37.694-0.113-68.221-30.64-68.334-68.323v-695.343c0.113-37.694 30.64-68.221 68.323-68.334h379.677v192h192v384zM384 704v192l192-192h-192z" />
<glyph unicode="&#xe667;" glyph-name="edit-line" d="M128.056 240.826v-176.886h176.886l521.932 521.932-176.886 176.886-521.932-521.932zM963.194 722.192c18.396 18.396 18.396 48.348 0 66.744l-110.142 110.14c-18.396 18.396-48.348 18.396-66.744 0l-86.32-86.32 176.886-176.886 86.32 86.322zM64 0h896v-32h-896v32z" />
<glyph unicode="&#xe668;" glyph-name="calendar-list" d="M256 384h512v-64h-512v64zM896 832h-64v64h-128v-64h-384v64h-128v-64h-64c-43.316 0-64-20.684-64-64v-704c0-43.316 20.684-64 64-64h768c43.316 0 64 20.684 64 64v704c0 43.316-20.684 64-64 64zM896 64h-768v576h768v-576zM256 512h512v-64h-512v64zM256 256h320v-64h-320v64z" />
<glyph unicode="&#xe669;" glyph-name="collapse" d="M0 896h1024v-192h-1024v192zM0 512h1024v-192h-1024v192zM0 128h1024v-192h-1024v192z" />
<glyph unicode="&#xe66a;" glyph-name="broadcast" d="M831.5 896h-639c-35.476 0-64.5-29.026-64.5-64.5v-97.892c368.030-2.246 665.716-301.112 665.986-669.608h37.514c35.476 0 64.5 29.026 64.5 64.5v703c0 35.474-29.024 64.5-64.5 64.5zM128 217.788v-153.788h153.788c0 85.252-68.536 153.788-153.788 153.788zM128 421.724v-101.968c140.416 0 255.756-115.342 255.756-255.756h101.968c0 198.086-159.638 357.724-357.724 357.724zM128 625.662v-101.968c253.25 0 459.692-206.444 459.692-459.694h101.968c0.002 310.92-250.74 561.662-561.66 561.662z" />
<glyph unicode="&#xe66b;" glyph-name="broadcast-create" d="M0 281.788v-153.788h153.788c0 85.252-68.536 153.788-153.788 153.788zM703.5 960h-639c-35.476 0-64.5-29.026-64.5-64.5v-97.892c274.022-1.672 509.008-167.806 611.308-404.662 43.688 38.912 97.354 66.844 156.692 79.482v423.072c0 35.474-29.024 64.5-64.5 64.5zM0 485.724v-101.968c140.416 0 255.756-115.342 255.756-255.756h101.968c0 198.086-159.638 357.724-357.724 357.724zM0 689.662v-101.968c253.25 0 459.692-206.444 459.692-459.694h36.408c-0.060 2.66-0.102 5.326-0.102 8 0 58.158 14.452 112.932 39.93 160.96-71.47 227.974-283.924 392.702-535.928 392.702zM981.158 192.978l-88.158 31.918 40.734 84.446c8.522 17.666-9.854 36.254-27.616 27.934l-84.906-39.766-30.908 88.516c-6.466 18.518-32.602 18.668-39.28 0.224l-31.918-88.158-84.446 40.734c-17.668 8.522-36.254-9.854-27.934-27.616l39.766-84.906-88.516-30.908c-18.518-6.466-18.668-32.602-0.224-39.28l88.158-31.918-40.734-84.446c-8.522-17.668 9.854-36.254 27.616-27.934l84.906 39.766 30.908-88.516c6.466-18.518 32.602-18.668 39.28-0.224l31.918 88.156 84.446-40.734c17.668-8.522 36.254 9.854 27.934 27.616l-39.766 84.906 88.516 30.908c18.518 6.468 18.666 32.604 0.224 39.282z" />
<glyph unicode="&#xe66c;" glyph-name="kill" d="M960 561.568c0 222.984-183.812 398.432-448.006 398.432-264.17 0-447.994-175.448-447.994-398.432 0-103.086 23.22-170.224 92.41-241.568-75.744-143.334 4.256-256 163.59-256v-90.1c0-5.41 3.682-10.126 8.93-11.438l40.42-10.104c7.442-1.86 14.65 3.768 14.65 11.438v35.384c9.914-2.148 20.662-4.274 32-6.228v-40.674c0-8.974 7.308-16.232 16.286-16.176l47.63 0.298c8.9 0.056 16.084 7.282 16.084 16.176v31.72c5.326-0.19 10.666-0.294 16-0.294s10.674 0.106 16 0.294v-32.668c0-8.436 6.778-15.286 15.164-15.324l49.53-0.23c8.442-0.040 15.306 6.834 15.306 15.324v41.556c11.338 1.954 22.086 4.080 32 6.228v-34.774c0-8.066 7.58-13.984 15.406-12.028l39.204 9.8c5.52 1.38 9.392 6.338 9.392 12.028v41.792c0 1.984 0 4.954 0 8.464 0 13.006 0 33.514 0 39.536 159.334 0 238 112.666 164.234 256 69.188 71.34 91.764 138.484 91.764 241.568zM214.706 355.956c0 65.238 57.146 92.044 127.638 92.044s127.638-26.806 127.638-92.044c0-65.238-67.232-128.212-137.726-128.212-70.492 0-117.55 62.974-117.55 128.212zM512 159.524c-13.38-27.144-31.5-43.786-44.77-38.752-16.396 6.222-19.060 42.764-6.006 81.648 12.448 36.942 34.558 62.356 50.774 59.476 16.224 2.878 38.34-22.534 50.752-59.476 13.084-38.886 10.418-75.428-5.96-81.648-13.286-5.034-31.412 11.608-44.79 38.752zM691.744 227.744c-70.492 0-137.726 62.974-137.726 128.212s57.146 92.044 127.638 92.044c70.492 0 127.638-26.806 127.638-92.044s-47.058-128.212-117.55-128.212z" />
<glyph unicode="&#xe66d;" glyph-name="graphic" d="M256 960v-249.562c29.686 6.256 60.456 9.57 92.002 9.57 245.216 0 444.004-198.786 444.004-444.004 0-28.724-2.76-56.798-7.97-84.004h239.964v768h-768zM672.96 272.004c0-186.096-150.86-336.956-336.956-336.956s-336.956 150.86-336.956 336.956c0 186.096 150.86 336.956 336.956 336.956s336.956-150.86 336.956-336.956z" />
<glyph unicode="&#xe66e;" glyph-name="close-thick" d="M896 696.902l-135.764 135.764-248.902-248.902-248.902 248.902-135.764-135.764 248.902-248.902-248.902-248.902 135.764-135.764 248.902 248.902 248.902-248.902 135.764 135.764-248.902 248.902z" />
<glyph unicode="&#xe66f;" glyph-name="move" d="M768 640v-128h-192v192h128l-192 192-192-192h128v-192h-192v128l-192-192 192-192v128h192v-192h-128l192-192 192 192h-128v192h192v-128l192 192-192 192z" />
<glyph unicode="&#xe670;" glyph-name="takes-package" d="M575.5 896h-447c-35.474 0-64.5-29.026-64.5-64.5v-703c0-35.474 29.026-64.5 64.5-64.5h447c35.474 0 64.5 29.026 64.5 64.5v703c0 35.474-29.026 64.5-64.5 64.5zM512 256h-320v64h320v-64zM512 384h-320v64h320v-64zM512 512h-320v64h320v-64zM512 640h-320v64h320v-64zM768 896h-96c35.476 0 32-28.526 32-64v-704c0-35.474 3.476-64-32-64h96c35.346 0 64 28.654 64 64v704c0 35.2-28.8 64-64 64zM960 896h-96c35.476 0 32-28.526 32-64v-704c0-35.474 3.476-64-32-64h96c35.346 0 64 28.654 64 64v704c0 35.2-28.8 64-64 64z" />
<glyph unicode="&#xe671;" glyph-name="highlight-package" d="M0 832h768v-128h-768v128zM552.246 640h-552.246v-128h510.656zM656 640l96-256h272l-224-160 96-272-240 176-240-176 96 272-224 160h272zM384 176l-104 80h-280v-128h360zM232 320h-232v128h168c0 0-39.334-30.666-8-64 18.826-20.028 72-64 72-64z" />
<glyph unicode="&#xe672;" glyph-name="preview-mode" d="M326.408 256h-198.408v64h192c0 21.918 2.21 43.32 6.408 64h-198.408v64h218.652c9.982 22.846 22.54 44.308 37.334 64h-255.986v64h319.982c53.486 40.182 119.97 64 192.018 64v128c0 35.474-28.524 64-64 64h-512c-35.476 0-64-28.526-64-64v-576c0-35.474 28.524-64 64-64h319.986c-27.952 37.21-47.98 80.71-57.578 128zM128 704h384v-64h-384v64zM1024 0l-173.828 173.828c28.88 41.446 45.828 91.826 45.828 146.172 0 141.384-114.616 256-256 256s-256-114.616-256-256 114.616-256 256-256c54.346 0 104.726 16.948 146.172 45.828l173.828-173.828 64 64zM640 176c-79.53 0-144 64.472-144 144 0 79.53 64.47 144 144 144s144-64.47 144-144c0-79.528-64.47-144-144-144z" />
<glyph unicode="&#xe673;" glyph-name="unlocked" d="M832 512h-448v160c0 48 64 96 112 96h32c29.328 0 64.6-17.934 87.634-42.824l95.296 88.084c-42.474 48.98-103.796 82.74-166.93 82.74h-65c-127 0-223-112-223-224v-160h-64c-35.346 0-64-28.654-64-64v-448c0-35.346 28.654-64 64-64h640c35.346 0 64 28.654 64 64v448c0 35.346-28.654 64-64 64zM512 128c-53.019 0-96 42.981-96 96s42.981 96 96 96c53.019 0 96-42.981 96-96s-42.981-96-96-96z" />
<glyph unicode="&#xe674;" glyph-name="code" d="M384 832l-384-384 384-384 64 64-320 320 320 320-64 64zM640 832l384-384-384-384-64 64 320 320-320 320 64 64z" />
<glyph unicode="&#xe675;" glyph-name="cut" d="M768 768l-208-208 96-96 240 240v64h-128zM448 704c-0.089 105.885-85.946 191.688-191.844 191.688-105.953 0-191.844-85.891-191.844-191.844s85.891-191.844 191.844-191.844c19.836 0 38.969 3.011 56.967 8.6l102.877-104.6-104.236-104.236c-16.679 5.247-35.859 8.271-55.746 8.271-106.039 0-192-85.961-192-192s85.961-192 192-192c106.039 0 192 85.961 192 192 0 36.953-10.439 71.467-28.529 100.755l92.511 91.21 256-256h128v64l-476.044 476.044c17.608 28.374 28.044 62.798 28.044 99.659 0 0.104 0 0.209 0 0.313zM256 592c-61.856 0-112 50.144-112 112s50.144 112 112 112c61.856 0 112-50.144 112-112-0.072-61.827-50.173-111.928-111.993-112zM256 16c-61.856 0-112 50.144-112 112s50.144 112 112 112c61.856 0 112-50.144 112-112-0.072-61.827-50.173-111.928-111.993-112zM512 448c17.673 0 32-14.327 32-32s-14.327-32-32-32c-17.673 0-32 14.327-32 32s14.327 32 32 32z" />
<glyph unicode="&#xe676;" glyph-name="paste" d="M896 704v-704c0-43.316-20.684-64-64-64h-640c-43.316 0-64 20.684-64 64v704c0 43.316 20.684 64 64 64h64v-160c0-17.673 14.327-32 32-32h448c17.673 0 32 14.327 32 32v160h64c43.316 0 64-20.684 64-64zM320 656v144c0 17.673 14.327 32 32 32h32c0 70.692 57.308 128 128 128s128-57.308 128-128h32c17.673 0 32-14.327 32-32v-144c0-8.837-7.163-16-16-16h-352c-8.837 0-16 7.163-16 16zM448.132 836.158c-0.086-1.242-0.135-2.692-0.135-4.153 0-35.346 28.654-64 64-64s64 28.654 64 64c0 35.346-28.654 64-64 64-1.461 0-2.911-0.049-4.348-0.145-31.88-2.143-57.364-27.627-59.507-59.506z" />
<glyph unicode="&#xe677;" glyph-name="arrow-left" d="M896 512h-640l304.5 304.5c12.284 12.284 19.882 29.255 19.882 48s-7.598 35.716-19.882 48c-12.284 12.284-29.255 19.882-48 19.882s-35.716-7.598-48-19.882l-464.5-464.5 463-463c12.284-12.284 29.255-19.882 48-19.882s35.716 7.598 48 19.882c12.284 12.284 19.882 29.255 19.882 48s-7.598 35.716-19.882 48l-303 303h640c35.346 0 64 28.654 64 64s-28.654 64-64 64z" />
<glyph unicode="&#xe678;" glyph-name="arrow-right" d="M561 912.5c-12.284 12.284-29.255 19.882-48 19.882s-35.716-7.598-48-19.882c-12.283-12.238-19.883-29.169-19.883-47.875s7.6-35.637 19.881-47.873l303.002-302.752h-640c-35.346 0-64-28.654-64-64s28.654-64 64-64h640l-304.25-304.75c-26.51-26.51-27.75-69.616 0.25-96.124v-0.062c12.24-12.292 29.177-19.899 47.891-19.899 18.698 0 35.622 7.594 47.857 19.865l464.376 464.486z" />
<glyph unicode="&#xe679;" glyph-name="info-large" d="M378.346 549.42l8.526 45.294 207.328 27.708 28.242-12.788-68.622-488.3q-1.074-10.666-1.066-14.92 0-25.578 16.518-25.578 9.054 0 21.048 6.662t31.706 23.178l15.454-34.644q-9.066-12.788-28.508-30.374t-50.090-31.964c-20.432-9.6-59.826-14.388-83.98-14.388q-43.162 0-66.076 16.786t-22.914 48.748c-0.006 0.341-0.009 0.744-0.009 1.148 0 3.164 0.197 6.281 0.578 9.342q7.419 60.381 30.337 219.175l30.264 224zM485.288 843.18c8.868 15.573 21.238 28.222 36.092 37.165 14.774 9.003 32.099 14.183 50.635 14.183 0.307 0 0.614-0.001 0.92-0.004 0.471 0.011 1.081 0.017 1.693 0.017 15.946 0 30.938-4.089 43.982-11.277 12.246-6.745 22.563-16.691 29.79-28.705 6.942-11.487 10.932-24.934 10.932-39.313 0-0.072 0-0.143 0-0.215 0.005-0.376 0.007-0.834 0.007-1.292 0-18.902-4.614-36.725-12.778-52.407-8.155-15.501-20.622-28.527-35.806-37.418q-24.524-14.464-57.006-14.454c-0.029 0-0.064 0-0.099 0-14.913 0-28.817 4.322-40.527 11.782-12.192 7.535-22.36 17.886-29.642 30.151-7.275 11.812-11.476 25.627-11.536 40.419-0.002 0.276-0.004 0.583-0.004 0.89 0 18.564 4.953 35.971 13.608 50.972z" />
<glyph unicode="&#xe67a;" glyph-name="help-large" d="M499.748 190.46c-54.518 0-95.092-43.108-95.092-93.824 0-0.042 0-0.091 0-0.14 0-52.441 42.511-94.952 94.952-94.952 0.049 0 0.099 0 0.148 0 54.512 0 96.354 44.378 96.354 95.092s-41.842 93.824-96.362 93.824zM513.8 895.666c-75.562 0-140.074-16.034-193.8-34.026v-103.64h103.152l12.088 51.82c14.4 1.2 30.094 1.6 48.084 1.6 97.15 0 130.724-49.6 130.724-138.36 0-67.164-32.384-103.078-83.956-148.654-65.966-58.77-98.35-88.458-98.35-158.022 0-37.2 8.902-68.384 18.268-88.384h82.71c-5.5 26-7.426 44.678-7.426 59.634 0 52.772 37.18 75.43 100.746 118.6 95.96 63.566 152.574 110.286 152.574 224.226 0 157.12-113.692 215.206-264.814 215.206z" />
<glyph unicode="&#xe67b;" glyph-name="attachment" d="M704 192h-384c-141.385 0-256 114.615-256 256s114.615 256 256 256h447.958c106.062 0 192.043-85.981 192.043-192.043s-85.981-192.043-192.043-192.043h-383.958c-70.716 0-128.043 57.327-128.043 128.043s57.327 128.043 128.043 128.043h384v-64h-384c-35.37 0-64.043-28.673-64.043-64.043s28.673-64.043 64.043-64.043h383.958c70.716 0 128.043 57.327 128.043 128.043s-57.327 128.043-128.043 128.043h-447.958c-106.039 0-192-85.961-192-192s85.961-192 192-192h384v-64z" />
<glyph unicode="&#xe67c;" glyph-name="attachment-large" d="M894.2 375.056l-342.732-342.732c-125.988-125.988-330.988-125.988-456.976 0s-125.988 330.986 0 456.976l399.816 399.816c43.959 44.44 104.945 71.959 172.359 71.959 133.874 0 242.4-108.526 242.4-242.4 0-67.414-27.52-128.4-71.938-172.338l-342.707-342.723c-29.21-29.027-69.466-46.968-113.912-46.968-89.26 0-161.62 72.36-161.62 161.62 0 44.446 17.941 84.702 46.976 113.921l342.724 342.724 57.122-57.122-342.732-342.732c-14.629-14.629-23.676-34.838-23.676-57.16 0-44.645 36.192-80.836 80.836-80.836 22.322 0 42.531 9.048 57.16 23.676l342.7 342.694c29.248 29.248 47.338 69.654 47.338 114.285 0 89.262-72.361 161.623-161.623 161.623-44.631 0-85.037-18.090-114.285-47.338l-399.816-399.822c-43.856-43.856-70.982-104.443-70.982-171.366 0-133.845 108.503-242.348 242.348-242.348 66.923 0 127.51 27.126 171.366 70.982l342.732 342.732z" />
<glyph unicode="&#xe67d;" glyph-name="table" d="M64 896v-896h896v896h-896zM832 768v-256h-256v256h256zM192 768h256v-256h-256v256zM192 384h256v-256h-256v256zM576 128v256h256v-256h-256z" />
<glyph unicode="&#xe67e;" glyph-name="ordered-list" d="M64 192h128v-32h-64v-64h64v-32h-128v-64h192v256h-192v-64zM64 512h115.2l-115.2-134.4v-57.6h192v64h-115.2l115.2 134.4v57.6h-192v-64zM128 640h64v256h-128v-64h64v-192zM384 832v-128h576v128h-576zM384 64h576v128h-576v-128zM384 384h576v128h-576v-128z" />
<glyph unicode="&#xe67f;" glyph-name="heading-1" d="M384 768v-256h-192v256h-128v-640h128v256h192v-256h128v640h-128zM767.186 128h127.186l1.628 640h-256v-128h128l-0.814-512z" />
<glyph unicode="&#xe680;" glyph-name="heading-2" d="M384 768v-256h-192v256h-128v-640h128v256h192v-256h128v640h-128zM1024 256h-256v128h128c0.011 0 0.023 0 0.036 0 70.673 0 127.964 57.291 127.964 127.964 0 0.013 0 0.025 0 0.038v127.998c0 0.011 0 0.023 0 0.036 0 70.673-57.291 127.964-127.964 127.964-0.013 0-0.025 0-0.038 0h-255.998v-128h256v-128h-128c-0.011 0-0.023 0-0.036 0-70.673 0-127.964-57.291-127.964-127.964 0-0.013 0-0.025 0-0.038v-255.998h384v128z" />
<glyph unicode="&#xe681;" glyph-name="heading-3" d="M384 768v-256h-192v256h-128v-640h128v256h192v-256h128v640h-128zM1024 256v96c0 0.038 0 0.083 0 0.128 0 52.949-42.923 95.872-95.872 95.872-0.045 0-0.090 0-0.135 0 0.045 0 0.090 0 0.135 0 52.949 0 95.872 42.923 95.872 95.872 0 0.045 0 0.090 0 0.135v95.993c0 0.011 0 0.023 0 0.036 0 70.673-57.291 127.964-127.964 127.964-0.013 0-0.025 0-0.038 0h-255.998v-128h256v-128h-128v-128h128v-128h-256v-128h256c0.011 0 0.023 0 0.036 0 70.673 0 127.964 57.291 127.964 127.964 0 0.013 0 0.025 0 0.038z" />
<glyph unicode="&#xe682;" glyph-name="heading-4" d="M384 768v-256h-192v256h-128v-640h128v256h192v-256h128v640h-128zM896 128h128v640h-128v-256h-128v256h-128v-384h256v-256z" />
<glyph unicode="&#xe683;" glyph-name="heading-5" d="M384 768v-256h-192v256h-128v-640h128v256h192v-256h128v640h-128zM1024 256v128c0 0.011 0 0.023 0 0.036 0 70.673-57.291 127.964-127.964 127.964-0.013 0-0.025 0-0.038 0h-127.998v128h256v128h-384v-384h256v-128h-256v-128h256c0.011 0 0.023 0 0.036 0 70.673 0 127.964 57.291 127.964 127.964 0 0.013 0 0.025 0 0.038z" />
<glyph unicode="&#xe684;" glyph-name="heading-6" d="M384 768v-256h-192v256h-128v-640h128v256h192v-256h128v640h-128zM1024 640v128h-256c-0.011 0-0.023 0-0.036 0-70.673 0-127.964-57.291-127.964-127.964 0-0.013 0-0.025 0-0.038v-383.998c0-0.010 0-0.022 0-0.034 0-70.674 57.292-127.966 127.966-127.966 0.012 0 0.024 0 0.036 0h127.998c0.010 0 0.022 0 0.034 0 70.674 0 127.966 57.292 127.966 127.966 0 0.012 0 0.024 0 0.036v127.998c0 0.011 0 0.023 0 0.036 0 70.673-57.291 127.964-127.964 127.964-0.013 0-0.025 0-0.038 0h-127.998v128h256zM896 384v-128h-128v128h128z" />
<glyph unicode="&#xe685;" glyph-name="quote" d="M576 704v-320h176l-112-192 145 1 111 191v320h-320zM128 384h176l-112-192h144l112 192v320h-320v-320z" />
</font>
</defs>
</svg>
